<svg xmlns="http://www.w3.org/2000/svg" width="16" height="16" viewBox="0 0 16 16">
    <g fill="none" fill-rule="evenodd">
        <g fill="#D3CCC5">
            <g>
                <g>
                    <g>
                        <path d="M16 12.36v5.962C16 19.798 14.821 21 13.39 21H2.61C1.18 21 0 19.798 0 18.322V12.36h16zm-3.04 4.6h-1.008c-.415 0-.752.336-.752.751v1.056c0 .416.337.752.752.752h1.007c.416 0 .752-.336.752-.752v-1.056c0-.415-.336-.752-.752-.752zm-8.982 0H2.97c-.415 0-.752.336-.752.751v1.056c0 .416.337.752.752.752h1.008c.415 0 .752-.336.752-.752v-1.056c0-.415-.337-.752-.752-.752zm4.181 0H7.152c-.415 0-.752.336-.752.751v1.056c0 .416.337.752.752.752h1.007c.416 0 .752-.336.752-.752v-1.056c0-.415-.336-.752-.752-.752zm4.8-3.559h-1.007c-.415 0-.752.337-.752.752v1.056c0 .415.337.752.752.752h1.007c.416 0 .752-.337.752-.752v-1.056c0-.415-.336-.752-.752-.752zm-8.981 0H2.97c-.415 0-.752.337-.752.752v1.056c0 .415.337.752.752.752h1.008c.415 0 .752-.337.752-.752v-1.056c0-.415-.337-.752-.752-.752zm4.181 0H7.152c-.415 0-.752.337-.752.752v1.056c0 .415.337.752.752.752h1.007c.416 0 .752-.337.752-.752v-1.056c0-.415-.336-.752-.752-.752zM4.598 5c.387 0 .69.326.69.704v1.665c0 .395-.32.704-.69.704-.37 0-.674-.31-.69-.704V5.704c0-.395.303-.704.69-.704zm6.804 0c.387 0 .69.326.69.704v1.665c0 .395-.32.704-.69.704-.387 0-.69-.31-.69-.704V5.704c0-.395.32-.704.69-.704zM0 9.206c0-1.46 1.179-2.66 2.61-2.66h.624v.84c0 .773.606 1.39 1.364 1.39.758 0 1.364-.617 1.364-1.39v-.84h4.076v.84c0 .773.606 1.39 1.364 1.39.758 0 1.364-.617 1.364-1.39v-.84h.623c1.432 0 2.611 1.2 2.611 2.66V11.4H0z" transform="translate(-140 -867) translate(115 208) translate(25 654)"/>
                    </g>
                </g>
            </g>
        </g>
    </g>
</svg>
